<?xml version="1.0" encoding="utf-8"?>
<!-- Generator: Adobe Illustrator 16.0.0, SVG Export Plug-In . SVG Version: 6.00 Build 0)  -->
<!DOCTYPE svg PUBLIC "-//W3C//DTD SVG 1.1//EN" "http://www.w3.org/Graphics/SVG/1.1/DTD/svg11.dtd">
<svg version="1.1" id="Layer_1" xmlns="http://www.w3.org/2000/svg" xmlns:xlink="http://www.w3.org/1999/xlink" x="0px" y="0px"
	 width="48px" height="48px" viewBox="0 0 48 48" enable-background="new 0 0 48 48" xml:space="preserve">
<g>
	<path fill="#414042" d="M35.36,3.474H12.624c-0.276,0-0.5,0.224-0.5,0.5v40c0,0.218,0.141,0.41,0.348,0.477
		c0.21,0.064,0.435-0.011,0.56-0.187l10.96-15.427l10.962,15.427c0.096,0.134,0.248,0.21,0.407,0.21
		c0.051,0,0.102-0.008,0.152-0.023c0.207-0.066,0.348-0.259,0.348-0.477v-40C35.86,3.698,35.637,3.474,35.36,3.474z M34.86,42.407
		L24.398,27.684c-0.094-0.132-0.245-0.21-0.407-0.21s-0.313,0.078-0.407,0.21l-10.46,14.723V4.474H34.86V42.407z"/>
	<path fill="#414042" d="M20.481,18.408l-1.395,5.3c-0.054,0.205,0.027,0.422,0.202,0.541c0.085,0.058,0.184,0.086,0.281,0.086
		c0.104,0,0.209,0.063,0.297-0.002l4.443-3.183l4.49,3.378C28.887,24.589,28.988,25,29.09,25c0.008,0,0.016,0,0.02,0
		c0.276,0,0.5-0.603,0.5-0.879c0-0.097-0.027-0.565-0.074-0.643l-1.459-5.151l4.174-3.27c0.167-0.131,0.232-0.341,0.165-0.541
		c-0.067-0.201-0.254-0.315-0.466-0.318l-5.307-0.041l-1.995-5.021C24.572,8.943,24.388,9,24.182,9c-0.002,0-0.003,0-0.005,0
		c-0.208,0-0.393-0.051-0.464,0.144l-1.902,4.975L16.52,14.31c-0.212,0.007-0.396,0.147-0.459,0.35
		c-0.063,0.202,0.007,0.422,0.176,0.549L20.481,18.408z M22.182,15.106c0.203-0.007,0.382-0.136,0.451-0.327l1.563-4.236
		l1.638,4.198c0.074,0.189,0.255,0.315,0.458,0.318l4.233,0.069l-3.329,2.612c-0.159,0.125-0.228,0.334-0.173,0.53l1.2,4.24
		l-3.629-2.576c-0.174-0.125-0.412-0.123-0.586,0.006l-3.593,2.65l1.119-4.252c0.052-0.196-0.021-0.405-0.183-0.527l-3.388-2.553
		L22.182,15.106z"/>
</g>
</svg>
