<?xml version="1.0" encoding="utf-8"?>
<!-- Generator: Adobe Illustrator 16.0.0, SVG Export Plug-In . SVG Version: 6.00 Build 0)  -->
<!DOCTYPE svg PUBLIC "-//W3C//DTD SVG 1.1//EN" "http://www.w3.org/Graphics/SVG/1.1/DTD/svg11.dtd">
<svg version="1.1" id="Layer_1" xmlns="http://www.w3.org/2000/svg" xmlns:xlink="http://www.w3.org/1999/xlink" x="0px" y="0px"
	 width="48px" height="48px" viewBox="0 0 48 48" enable-background="new 0 0 48 48" xml:space="preserve">
<path fill="#414042" d="M35.36,3.474H12.624c-0.276,0-0.5,0.224-0.5,0.5v40c0,0.218,0.141,0.41,0.348,0.477
	c0.21,0.064,0.435-0.011,0.56-0.187l10.96-15.427l10.962,15.427c0.096,0.134,0.248,0.21,0.407,0.21c0.051,0,0.102-0.008,0.152-0.023
	c0.207-0.066,0.348-0.259,0.348-0.477v-40C35.86,3.698,35.637,3.474,35.36,3.474z M34.86,42.407L24.398,27.684
	c-0.094-0.132-0.245-0.21-0.407-0.21s-0.313,0.078-0.407,0.21l-10.46,14.723V4.474H34.86V42.407z"/>
</svg>
